#!OML:ASF H:\Terrain\Patient Classification 1\Terrain2\Thursday\justin.ASF
:FULLY-SPECIFIED
:DEGREES
2300
root -1.58244 17.7734 3.34744 -358.866 -193.973 5.71869
lowerback 8.62648 0.500634 6.75218
upperback 3.06265 1.93301 5.31943
thorax -1.64104 1.21263 1.53285
lowerneck -9.49955 -7.10963 -10.3035
upperneck 40.7641 -4.10794 3.29939
head 16.7793 -1.22363 3.12066
rclavicle 1.21259e-014 -2.54444e-014
rhumerus -29.8492 -10.1439 -75.6469
rradius 38.9264
rwrist -12.2384
rhand -18.3653 11.5036
rfingers 7.12502
rthumb 7.9178 -18.3281
lclavicle 1.21259e-014 -2.54444e-014
lhumerus -38.5822 6.83127 85.1382
lradius 33.0056
lwrist 1.93858
lhand -9.87754 25.2211
lfingers 7.12502
lthumb 16.1016 -305.428
rfemur -12.2197 -5.50716 28.6902
rtibia 25.8185
rfoot -8.95808 14.7586
rtoes 24.7243
lfemur -17.6508 355.81 -10.5596
ltibia 55.5385
lfoot -7.93655 -4.62321
ltoes -6.4137
2301
root -1.60203 17.7694 3.27687 -358.841 -194.855 5.20031
lowerback 8.7163 0.533373 6.35068
upperback 3.05248 1.90082 5.03783
thorax -1.70318 1.17593 1.46327
lowerneck -9.72184 -7.07931 -10.0286
upperneck 40.7612 -4.14617 3.17251
head 16.8152 -1.23754 2.99932
rclavicle 1.63003e-014 6.20208e-014
rhumerus -29.5977 -9.67893 -76.1651
rradius 39.4143
rwrist -12.5962
rhand -18.5288 11.6145
rfingers 7.12502
rthumb 7.75998 -18.2231
lclavicle 1.63003e-014 6.20208e-014
lhumerus -38.47 7.97742 84.0492
lradius 33.05
lwrist -1.27086
lhand -5.3643 25.927
lfingers 7.12502
lthumb 20.4434 -305.129
rfemur -12.3569 -5.22711 27.9826
rtibia 26.2895
rfoot -9.16817 15.3503
rtoes 25.2464
lfemur -17.9807 355.109 -11.0448
ltibia 54.4097
lfoot -8.34895 -4.11588
ltoes -5.97542
2302
root -1.62618 17.7629 3.21054 -358.713 -195.633 4.09518
lowerback 8.43077 0.59591 5.38522
upperback 3.00367 1.79724 4.64465
thorax -1.61141 1.0934 1.60633
lowerneck -9.99732 -7.04693 -9.80862
upperneck 40.8127 -4.17168 3.10449
head 16.8989 -1.24467 2.91915
rclavicle -2.38542e-015 5.725e-014
rhumerus -29.2375 -9.25256 -76.5248
rradius 39.7277
rwrist -12.4325
rhand -18.5505 11.6899
rfingers 7.12502
rthumb 7.73902 -18.1485
lclavicle -2.38542e-015 5.725e-014
lhumerus -38.3708 7.07622 84.6426
lradius 33.0342
lwrist 3.07916
lhand -10.8414 23.464
lfingers 7.12502
lthumb 15.1733 -307.112
rfemur -12.776 -5.34038 26.656
rtibia 26.694
rfoot -9.36935 16.3287
rtoes 25.5636
lfemur -18.5624 354.277 -12.1328
ltibia 53.2234
lfoot -8.76205 -3.9081
ltoes -7.08388
2303
root -1.64048 17.7461 3.14599 -358.545 -196.435 4.05295
lowerback 8.32301 0.497512 5.14765
upperback 2.96033 1.63809 4.7374
thorax -1.6074 1.01091 1.85177
lowerneck -10.1375 -6.92462 -10.0259
upperneck 40.9649 -3.91138 3.07848
head 17.0077 -1.18486 2.9936
rclavicle 4.33351e-014 -1.59028e-015
rhumerus -28.9459 -8.10442 -76.7097
rradius 40.0425
rwrist -12.5917
rhand -18.5101 11.7407
rfingers 7.12502
rthumb 7.77801 -18.0962
lclavicle 4.33351e-014 -1.59028e-015
lhumerus -38.5529 7.35993 84.802
lradius 33.2123
lwrist 4.55667
lhand -12.612 22.5982
lfingers 7.12502
lthumb 13.4672 -307.857
rfemur -12.8481 -5.09431 26.4872
rtibia 26.9858
rfoot -9.51189 17.0084
rtoes 25.9058
lfemur -18.9299 353.561 -11.9129
ltibia 52.0652
lfoot -9.17312 -4.47188
ltoes -6.94097
2304
root -1.64788 17.7292 3.07859 -358.411 -197.463 4.85554
lowerback 8.52019 0.272393 5.41213
upperback 3.01663 1.44359 5.23885
thorax -1.66748 0.93722 2.24297
lowerneck -10.264 -6.6919 -10.5229
upperneck 40.9971 -3.3973 2.94266
head 17.0346 -1.08973 3.10301
rclavicle 3.10104e-014 -5.725e-014
rhumerus -28.5921 -6.50077 -76.8382
rradius 40.369
rwrist -13.132
rhand -18.9583 11.4929
rfingers 7.12502
rthumb 7.34539 -18.3596
lclavicle 3.10104e-014 -5.725e-014
lhumerus -38.7513 8.44241 84.8455
lradius 33.3237
lwrist 5.13624
lhand -13.3396 22.6642
lfingers 7.12502
lthumb 12.7658 -307.746
rfemur -12.5479 -4.34088 27.1981
rtibia 27.1205
rfoot -9.41694 17.4722
rtoes 26.4394
lfemur -18.9604 352.993 -10.7296
ltibia 50.951
lfoot -9.91699 -5.27312
ltoes -6.21053
2305
root -1.66152 17.7274 3.01199 -358.126 -198.557 5.531
lowerback 8.61397 0.592427 6.35659
upperback 3.10058 1.95124 5.08006
thorax -1.59596 1.19733 1.50234
lowerneck -10.442 -6.94996 -10.009
upperneck 40.9361 -3.98952 2.90982
head 17.0697 -1.27655 2.88452
rclavicle 2.54444e-014 -1.27222e-014
rhumerus -28.5226 -7.38709 -77.037
rradius 40.7601
rwrist -13.0562
rhand -19.5142 11.5228
rfingers 7.12502
rthumb 6.80878 -18.3477
lclavicle 2.54444e-014 -1.27222e-014
lhumerus -38.305 7.45018 84.8664
lradius 33.17
lwrist 5.59829
lhand -14.2199 23.1306
lfingers 7.12502
lthumb 11.9171 -307.229
rfemur -12.3664 -3.6609 27.7467
rtibia 27.1203
rfoot -9.19741 18.0297
rtoes 27.099
lfemur -19.2006 352.324 -9.70314
ltibia 49.8515
lfoot -10.473 -5.97571
ltoes -5.31353
2306
root -1.68105 17.7308 2.94801 -357.763 -199.56 5.98144
lowerback 8.67882 0.84751 7.06923
upperback 3.03647 2.34506 4.90662
thorax -1.65473 1.38823 0.887117
lowerneck -10.5217 -7.17115 -9.53732
upperneck 40.9946 -4.43157 2.77214
head 17.131 -1.4099 2.65954
rclavicle -5.76476e-015 6.36111e-015
rhumerus -28.5289 -8.11104 -77.1743
rradius 41.204
rwrist -12.9585
rhand -19.1953 11.8854
rfingers 7.12502
rthumb 7.1166 -17.9749
lclavicle -5.76476e-015 6.36111e-015
lhumerus -38.0937 6.76189 84.7744
lradius 32.9773
lwrist 5.48991
lhand -14.6174 23.4969
lfingers 7.12502
lthumb 11.5337 -306.84
rfemur -12.3503 -3.29859 28.0427
rtibia 27.1397
rfoot -9.13798 18.7185
rtoes 27.3478
lfemur -19.5436 351.43 -8.92227
ltibia 48.694
lfoot -10.7157 -6.75812
ltoes -5.08809
2307
root -1.70081 17.7193 2.88503 -357.431 -200.546 6.24247
lowerback 8.7139 0.684483 6.97143
upperback 2.83131 2.15057 5.15023
thorax -1.90837 1.28307 1.20888
lowerneck -10.1889 -6.96921 -9.77116
upperneck 41.0153 -3.97615 2.5033
head 17.0251 -1.29737 2.66036
rclavicle -9.93923e-015 -6.52014e-014
rhumerus -28.5495 -7.03915 -77.2701
rradius 41.664
rwrist -13.2415
rhand -18.6318 11.6577
rfingers 7.12502
rthumb 7.66052 -18.1836
lclavicle -9.93923e-015 -6.52014e-014
lhumerus -38.5317 7.57795 84.6342
lradius 32.8666
lwrist 5.55974
lhand -15.0825 23.0025
lfingers 7.12502
lthumb 11.0852 -307.31
rfemur -12.4472 -2.95834 28.1302
rtibia 27.2739
rfoot -9.10331 19.4421
rtoes 27.6264
lfemur -19.7627 350.409 -8.31628
ltibia 47.4344
lfoot -11.0004 -7.53433
ltoes -5.64258
2308
root -1.72139 17.7031 2.8178 -357.256 -201.552 6.25747
lowerback 8.76259 0.647263 6.81491
upperback 2.76232 2.09324 5.2089
thorax -2.01645 1.24804 1.36015
lowerneck -10.1603 -6.9235 -9.98073
upperneck 41.1517 -3.856 2.51215
head 17.0976 -1.28613 2.72579
rclavicle -2.78299e-015 5.725e-014
rhumerus -28.5208 -6.47301 -77.3459
rradius 42.0509
rwrist -13.4477
rhand -18.4128 11.4778
rfingers 7.12502
rthumb 7.87196 -18.3557
lclavicle -2.78299e-015 5.725e-014
lhumerus -38.6837 7.75971 84.6573
lradius 32.8646
lwrist 6.01425
lhand -15.7112 22.3788
lfingers 7.12502
lthumb 10.4788 -307.902
rfemur -12.5607 -2.79289 27.9428
rtibia 27.5815
rfoot -9.01396 20.3683
rtoes 28.3686
lfemur -19.8646 349.359 -7.97028
ltibia 46.0895
lfoot -10.9778 -8.41941
ltoes -2.13991
